<svg xmlns="http://www.w3.org/2000/svg" xmlns:xlink="http://www.w3.org/1999/xlink" viewBox="0 0 154.5 154.5" height="154.5" width="154.5" data-background-color="#ffffff" preserveAspectRatio="xMidYMid meet" id="tight-bounds"><g><svg/></g><g><svg viewBox="0 0 154.5 154.5" height="154.5" width="154.5"><g transform="matrix(1,0,0,1,29.509500000000003,55.28193289394847)"><svg viewBox="0 0 95.481 43.936134212103056" height="43.936134212103056" width="95.481"><g><svg viewBox="0 0 95.481 43.936134212103056" height="43.936134212103056" width="95.481"><g><svg viewBox="0 0 95.481 43.936134212103056" height="43.936134212103056" width="95.481"><g><svg viewBox="0 0 95.481 43.936134212103056" height="43.936134212103056" width="95.481"><g><svg viewBox="0 0 95.481 43.936134212103056" height="43.936134212103056" width="95.481"><g transform="matrix(1,0,0,1,0,0)"><svg width="95.481" viewBox="3.759999990463257 -36.5 81.48999786376953 37.5" height="43.936134212103056" data-palette-color="#50a060"><path d="M24.1-5.05L35.69-33.96Q37.45-35.25 39.5-35.6L39.5-35.6 42.75-4.39Q42.9-2.42 43.77-1.6 44.65-0.78 46.95-0.61L46.95-0.61 46.8 0Q43.99-0.07 42.43 0.05 40.87 0.17 39.11 0.76L39.11 0.76 38.94 0.49Q39.4-0.29 39.21-2.1L39.21-2.1 36.35-30.49 23.8 0.95 22.09 0.15Q22-1.59 20.7-4.76L20.7-4.76 9.55-29.44 6.69-3.39Q6.59-2.54 6.82-2.01 7.06-1.49 7.95-1.04 8.84-0.59 10.6-0.24L10.6-0.24 10.5 0.2Q6.49-0.1 4.25 0L4.25 0Q4.05-0.2 3.96-0.49L3.96-0.49 7.64-32.45Q6.96-33.01 5.96-33.04 4.96-33.08 4.05-32.86L4.05-32.86 3.76-33.35Q7.4-35.4 10.4-35.4L10.4-35.4Q10.99-34.08 16.98-20.75 22.97-7.42 24.1-5.05L24.1-5.05ZM81.05-3.1L81.05-3.1 81.05-7.1Q81.05-10.55 80.22-11.73 79.39-12.92 76.73-12.74L76.73-12.74 76.63-13.21Q80.66-14.4 84.3-14.4L84.3-14.4Q84.79-13.06 84.79-11.6L84.79-11.6 84.79-4.59Q84.79-2.29 85.25-1.66L85.25-1.66 85.1-1.39Q83.18-1.39 80.93-0.79 78.68-0.2 76.12 0.4 73.56 1 70.9 1L70.9 1Q67.21 1 64.04-0.35 60.86-1.71 58.58-4.13 56.3-6.54 54.99-10.08 53.68-13.62 53.68-17.8L53.68-17.8Q53.68-21.63 54.72-24.77 55.76-27.91 57.55-30.05 59.35-32.2 61.86-33.68 64.38-35.16 67.27-35.83 70.16-36.5 73.44-36.5L73.44-36.5Q79.03-36.5 83.93-34.2L83.93-34.2Q83.08-31.15 81.49-27.76L81.49-27.76 80.83-28Q81.22-30.91 81-32.79L81-32.79Q79.93-33.4 78.88-33.8 77.83-34.2 76.66-34.44 75.49-34.67 74.13-34.75 72.78-34.84 71.09-34.84L71.09-34.84Q68.85-34.84 66.9-34.27 64.96-33.69 63.28-32.37 61.59-31.05 60.4-29.06 59.2-27.08 58.52-24.11 57.83-21.14 57.83-17.41L57.83-17.41Q57.83-13.82 59.06-10.64 60.28-7.47 62.29-5.3 64.3-3.13 66.94-1.87 69.58-0.61 72.39-0.61L72.39-0.61Q75.17-0.61 77.06-1.11 78.95-1.61 81.05-3.1Z" opacity="1" transform="matrix(1,0,0,1,0,0)" fill="#50a060" class="undefined-text-0" data-fill-palette-color="primary" id="text-0"/></svg></g></svg></g></svg></g></svg></g><g/></svg></g></svg></g><g><path xmlns="http://www.w3.org/2000/svg" d="M0 154.5v-154.5h154.5v154.5zM150.538 150.538v-146.576h-146.576v146.576z" fill="#50a060" fill-rule="nonzero" stroke="none" stroke-width="1" stroke-linecap="butt" stroke-linejoin="miter" stroke-miterlimit="10" stroke-dasharray="" stroke-dashoffset="0" font-family="none" font-weight="none" font-size="none" text-anchor="none" style="mix-blend-mode: normal" data-fill-palette-color="tertiary"/></g></svg></g><defs/></svg>